<svg width="1460" height="1092" xmlns="http://www.w3.org/2000/svg" xmlns:xlink="http://www.w3.org/1999/xlink" overflow="hidden"><defs><clipPath id="clip0"><rect x="1191" y="547" width="1460" height="1092"/></clipPath></defs><g clip-path="url(#clip0)" transform="translate(-1191 -547)"><path d="M0 0 264.952 114.497" stroke="#767171" stroke-width="38.9583" stroke-linecap="round" stroke-miterlimit="8" fill="none" fill-rule="evenodd" transform="matrix(1 0 0 -1 2300.5 743.997)"/><path d="M0 0 0.000360892 373.054" stroke="#767171" stroke-width="134.062" stroke-miterlimit="8" fill="none" fill-rule="evenodd" transform="matrix(1 0 0 -1 1273 1611.05)"/><path d="M2556 1516.31 2556 818" stroke="#767171" stroke-width="134.062" stroke-linecap="square" stroke-miterlimit="8" fill="none" fill-rule="evenodd"/><path d="M2556 1542.62 2556 1489" stroke="#767171" stroke-width="134.062" stroke-linecap="square" stroke-miterlimit="8" fill="none" fill-rule="evenodd"/><path d="M0 0 0.000360892 369.176" stroke="#767171" stroke-width="134.062" stroke-linecap="square" stroke-miterlimit="8" fill="none" fill-rule="evenodd" transform="matrix(1 0 0 -1 1529 1529.18)"/><path d="M0 0 0.000360892 28.3456" stroke="#767171" stroke-width="134.062" stroke-linecap="square" stroke-miterlimit="8" fill="none" fill-rule="evenodd" transform="matrix(1 0 0 -1 1529 1543.35)"/><path d="M1787 1522.16 1787 989" stroke="#767171" stroke-width="134.062" stroke-linecap="square" stroke-miterlimit="8" fill="none" fill-rule="evenodd"/><path d="M1787 1542.94 1787 1502" stroke="#767171" stroke-width="134.062" stroke-linecap="square" stroke-miterlimit="8" fill="none" fill-rule="evenodd"/><path d="M2043 1528.2 2043 1149" stroke="#767171" stroke-width="134.062" stroke-linecap="square" stroke-miterlimit="8" fill="none" fill-rule="evenodd"/><path d="M2043 1542.12 2043 1513" stroke="#767171" stroke-width="134.062" stroke-linecap="square" stroke-miterlimit="8" fill="none" fill-rule="evenodd"/><path d="M0 0 0.000360892 584.74" stroke="#767171" stroke-width="134.062" stroke-linecap="square" stroke-miterlimit="8" fill="none" fill-rule="evenodd" transform="matrix(1 0 0 -1 2300 1520.74)"/><path d="M0 0 0.000360892 44.8968" stroke="#767171" stroke-width="134.062" stroke-linecap="square" stroke-miterlimit="8" fill="none" fill-rule="evenodd" transform="matrix(1 0 0 -1 2300 1542.9)"/><path d="M0 0 266.386 146.358" stroke="#767171" stroke-width="38.9583" stroke-linecap="round" stroke-miterlimit="8" fill="none" fill-rule="evenodd" transform="matrix(1 0 0 -1 1263.5 1067.86)"/><path d="M1210 1070C1210 1035.21 1238.21 1007 1273 1007 1307.79 1007 1336 1035.21 1336 1070 1336 1104.79 1307.79 1133 1273 1133 1238.21 1133 1210 1104.79 1210 1070Z" stroke="#767171" stroke-width="37.8125" stroke-miterlimit="8" fill="#FFFFFF" fill-rule="evenodd"/><path d="M0 0 256.532 163.148" stroke="#767171" stroke-width="38.9583" stroke-linecap="round" stroke-miterlimit="8" fill="none" fill-rule="evenodd" transform="matrix(1 0 0 -1 1529.5 921.648)"/><path d="M1466 922C1466 887.206 1494.21 859 1529 859 1563.79 859 1592 887.206 1592 922 1592 956.794 1563.79 985 1529 985 1494.21 985 1466 956.794 1466 922Z" stroke="#767171" stroke-width="37.8125" stroke-miterlimit="8" fill="#FFFFFF" fill-rule="evenodd"/><path d="M1795.5 750.5 2043.3 915.991" stroke="#767171" stroke-width="38.9583" stroke-linecap="round" stroke-miterlimit="8" fill="none" fill-rule="evenodd"/><path d="M0 0 256.82 167.141" stroke="#767171" stroke-width="38.9583" stroke-linecap="round" stroke-miterlimit="8" fill="none" fill-rule="evenodd" transform="matrix(1 0 0 -1 2042.5 911.641)"/><path d="M1980 911C1980 876.206 2008.21 848 2043 848 2077.79 848 2106 876.206 2106 911 2106 945.794 2077.79 974 2043 974 2008.21 974 1980 945.794 1980 911Z" stroke="#767171" stroke-width="37.8125" stroke-miterlimit="8" fill="#FFFFFF" fill-rule="evenodd"/><path d="M1724 755C1724 720.206 1752.21 692 1787 692 1821.79 692 1850 720.206 1850 755 1850 789.794 1821.79 818 1787 818 1752.21 818 1724 789.794 1724 755Z" stroke="#767171" stroke-width="37.8125" stroke-miterlimit="8" fill="#FFFFFF" fill-rule="evenodd"/><path d="M2237 744C2237 709.206 2265.21 681 2300 681 2334.79 681 2363 709.206 2363 744 2363 778.794 2334.79 807 2300 807 2265.21 807 2237 778.794 2237 744Z" stroke="#767171" stroke-width="37.8125" stroke-miterlimit="8" fill="#FFFFFF" fill-rule="evenodd"/><path d="M2502 629C2502 594.206 2530.21 566 2565 566 2599.79 566 2628 594.206 2628 629 2628 663.794 2599.79 692 2565 692 2530.21 692 2502 663.794 2502 629Z" stroke="#767171" stroke-width="37.8125" stroke-miterlimit="8" fill="#FFFFFF" fill-rule="evenodd"/></g></svg>