<svg width="1198" height="926" xmlns="http://www.w3.org/2000/svg" xmlns:xlink="http://www.w3.org/1999/xlink" overflow="hidden"><defs><clipPath id="clip0"><rect x="1359" y="708" width="1198" height="926"/></clipPath></defs><g clip-path="url(#clip0)" transform="translate(-1359 -708)"><path d="M0 0 192.434 127.629" stroke="#878181" stroke-width="13.75" stroke-linecap="round" stroke-miterlimit="8" fill="none" fill-rule="evenodd" transform="matrix(1 0 0 -1 1515 913.629)"/><path d="M1359 913.5C1359 870.698 1393.92 836 1437 836 1480.08 836 1515 870.698 1515 913.5 1515 956.302 1480.08 991 1437 991 1393.92 991 1359 956.302 1359 913.5Z" fill="#878181" fill-rule="evenodd"/><path d="M1359 1170C1359 1126.92 1393.92 1092 1437 1092 1480.08 1092 1515 1126.92 1515 1170 1515 1213.08 1480.08 1248 1437 1248 1393.92 1248 1359 1213.08 1359 1170Z" fill="#878181" fill-rule="evenodd"/><path d="M1359 1427C1359 1383.92 1393.92 1349 1437 1349 1480.08 1349 1515 1383.92 1515 1427 1515 1470.08 1480.08 1505 1437 1505 1393.92 1505 1359 1470.08 1359 1427Z" fill="#878181" fill-rule="evenodd"/><path d="M1707 786C1707 742.922 1741.92 708 1785 708 1828.08 708 1863 742.922 1863 786 1863 829.078 1828.08 864 1785 864 1741.92 864 1707 829.078 1707 786Z" fill="#878181" fill-rule="evenodd"/><path d="M1707 1043C1707 999.922 1741.92 965 1785 965 1828.08 965 1863 999.922 1863 1043 1863 1086.08 1828.08 1121 1785 1121 1741.92 1121 1707 1086.08 1707 1043Z" fill="#878181" fill-rule="evenodd"/><path d="M1707 1299C1707 1255.92 1741.92 1221 1785 1221 1828.08 1221 1863 1255.92 1863 1299 1863 1342.08 1828.08 1377 1785 1377 1741.92 1377 1707 1342.08 1707 1299Z" fill="#878181" fill-rule="evenodd"/><path d="M1707 1556C1707 1512.92 1741.92 1478 1785 1478 1828.08 1478 1863 1512.92 1863 1556 1863 1599.08 1828.08 1634 1785 1634 1741.92 1634 1707 1599.08 1707 1556Z" fill="#878181" fill-rule="evenodd"/><path d="M2055 786C2055 742.922 2089.92 708 2133 708 2176.08 708 2211 742.922 2211 786 2211 829.078 2176.08 864 2133 864 2089.92 864 2055 829.078 2055 786Z" fill="#878181" fill-rule="evenodd"/><path d="M2055 1043C2055 999.922 2089.92 965 2133 965 2176.08 965 2211 999.922 2211 1043 2211 1086.08 2176.08 1121 2133 1121 2089.92 1121 2055 1086.08 2055 1043Z" fill="#878181" fill-rule="evenodd"/><path d="M2055 1299C2055 1255.92 2089.92 1221 2133 1221 2176.08 1221 2211 1255.92 2211 1299 2211 1342.08 2176.08 1377 2133 1377 2089.92 1377 2055 1342.08 2055 1299Z" fill="#878181" fill-rule="evenodd"/><path d="M2055 1556C2055 1512.92 2089.92 1478 2133 1478 2176.08 1478 2211 1512.92 2211 1556 2211 1599.08 2176.08 1634 2133 1634 2089.92 1634 2055 1599.08 2055 1556Z" fill="#878181" fill-rule="evenodd"/><path d="M2401 985.5C2401 942.698 2435.92 908 2479 908 2522.08 908 2557 942.698 2557 985.5 2557 1028.3 2522.08 1063 2479 1063 2435.92 1063 2401 1028.3 2401 985.5Z" fill="#878181" fill-rule="evenodd"/><path d="M2401 1377C2401 1333.92 2435.92 1299 2479 1299 2522.08 1299 2557 1333.92 2557 1377 2557 1420.08 2522.08 1455 2479 1455 2435.92 1455 2401 1420.08 2401 1377Z" fill="#878181" fill-rule="evenodd"/><path d="M1515 914 1707.43 1043.04" stroke="#878181" stroke-width="13.75" stroke-linecap="round" stroke-miterlimit="8" fill="none" fill-rule="evenodd"/><path d="M1515 914 1707.43 1299.7" stroke="#878181" stroke-width="13.75" stroke-linecap="round" stroke-miterlimit="8" fill="none" fill-rule="evenodd"/><path d="M1515 914 1707.43 1556.37" stroke="#878181" stroke-width="13.75" stroke-linecap="round" stroke-miterlimit="8" fill="none" fill-rule="evenodd"/><path d="M0 0 192.434 384.296" stroke="#878181" stroke-width="13.75" stroke-linecap="round" stroke-miterlimit="8" fill="none" fill-rule="evenodd" transform="matrix(1 0 0 -1 1515 1170.3)"/><path d="M0 0 192.434 127.629" stroke="#878181" stroke-width="13.75" stroke-linecap="round" stroke-miterlimit="8" fill="none" fill-rule="evenodd" transform="matrix(1 0 0 -1 1515 1170.63)"/><path d="M1515 1170 1707.43 1299.04" stroke="#878181" stroke-width="13.75" stroke-linecap="round" stroke-miterlimit="8" fill="none" fill-rule="evenodd"/><path d="M1515 1170 1707.43 1555.7" stroke="#878181" stroke-width="13.75" stroke-linecap="round" stroke-miterlimit="8" fill="none" fill-rule="evenodd"/><path d="M1515 1427 1707.43 1555.81" stroke="#878181" stroke-width="13.75" stroke-linecap="round" stroke-miterlimit="8" fill="none" fill-rule="evenodd"/><path d="M0 0 192.434 127.859" stroke="#878181" stroke-width="13.75" stroke-linecap="round" stroke-miterlimit="8" fill="none" fill-rule="evenodd" transform="matrix(1 0 0 -1 1515 1426.86)"/><path d="M0 0 192.434 384.526" stroke="#878181" stroke-width="13.75" stroke-linecap="round" stroke-miterlimit="8" fill="none" fill-rule="evenodd" transform="matrix(1 0 0 -1 1515 1427.53)"/><path d="M0 0 192.434 641.193" stroke="#878181" stroke-width="13.75" stroke-linecap="round" stroke-miterlimit="8" fill="none" fill-rule="evenodd" transform="matrix(1 0 0 -1 1515 1427.19)"/><path d="M1863 786 2055.43 786.001" stroke="#878181" stroke-width="13.75" stroke-linecap="round" stroke-miterlimit="8" fill="none" fill-rule="evenodd"/><path d="M1863 786 2055.43 1042.67" stroke="#878181" stroke-width="13.75" stroke-linecap="round" stroke-miterlimit="8" fill="none" fill-rule="evenodd"/><path d="M1863 786 2055.43 1299.33" stroke="#878181" stroke-width="13.75" stroke-linecap="round" stroke-miterlimit="8" fill="none" fill-rule="evenodd"/><path d="M1863 786 2055.43 1556" stroke="#878181" stroke-width="13.75" stroke-linecap="round" stroke-miterlimit="8" fill="none" fill-rule="evenodd"/><path d="M0 0 192.434 256.667" stroke="#878181" stroke-width="13.75" stroke-linecap="round" stroke-miterlimit="8" fill="none" fill-rule="evenodd" transform="matrix(1 0 0 -1 1863 1042.67)"/><path d="M1863 1043 2055.43 1043" stroke="#878181" stroke-width="13.75" stroke-linecap="round" stroke-miterlimit="8" fill="none" fill-rule="evenodd"/><path d="M1863 1043 2055.43 1299.67" stroke="#878181" stroke-width="13.75" stroke-linecap="round" stroke-miterlimit="8" fill="none" fill-rule="evenodd"/><path d="M1863 1043 2055.43 1556.33" stroke="#878181" stroke-width="13.75" stroke-linecap="round" stroke-miterlimit="8" fill="none" fill-rule="evenodd"/><path d="M1863 1299 2055.43 1555.67" stroke="#878181" stroke-width="13.75" stroke-linecap="round" stroke-miterlimit="8" fill="none" fill-rule="evenodd"/><path d="M1863 1299 2055.43 1299" stroke="#878181" stroke-width="13.75" stroke-linecap="round" stroke-miterlimit="8" fill="none" fill-rule="evenodd"/><path d="M0 0 192.434 256.667" stroke="#878181" stroke-width="13.75" stroke-linecap="round" stroke-miterlimit="8" fill="none" fill-rule="evenodd" transform="matrix(1 0 0 -1 1863 1299.67)"/><path d="M0 0 192.434 513.333" stroke="#878181" stroke-width="13.75" stroke-linecap="round" stroke-miterlimit="8" fill="none" fill-rule="evenodd" transform="matrix(1 0 0 -1 1863 1299.33)"/><path d="M1863 1556 2055.43 1556" stroke="#878181" stroke-width="13.75" stroke-linecap="round" stroke-miterlimit="8" fill="none" fill-rule="evenodd"/><path d="M0 0 192.434 256.667" stroke="#878181" stroke-width="13.75" stroke-linecap="round" stroke-miterlimit="8" fill="none" fill-rule="evenodd" transform="matrix(1 0 0 -1 1863 1555.67)"/><path d="M0 0 192.434 513.333" stroke="#878181" stroke-width="13.75" stroke-linecap="round" stroke-miterlimit="8" fill="none" fill-rule="evenodd" transform="matrix(1 0 0 -1 1863 1556.33)"/><path d="M0 0 192.434 770" stroke="#878181" stroke-width="13.75" stroke-linecap="round" stroke-miterlimit="8" fill="none" fill-rule="evenodd" transform="matrix(1 0 0 -1 1863 1556)"/><path d="M2211 786 2401.2 985.619" stroke="#878181" stroke-width="13.75" stroke-linecap="round" stroke-miterlimit="8" fill="none" fill-rule="evenodd"/><path d="M2211 786 2401.2 1377.19" stroke="#878181" stroke-width="13.75" stroke-linecap="round" stroke-miterlimit="8" fill="none" fill-rule="evenodd"/><path d="M0 0 190.2 57.0477" stroke="#878181" stroke-width="13.75" stroke-linecap="round" stroke-miterlimit="8" fill="none" fill-rule="evenodd" transform="matrix(1 0 0 -1 2211 1043.05)"/><path d="M2211 1043 2401.2 1377.52" stroke="#878181" stroke-width="13.75" stroke-linecap="round" stroke-miterlimit="8" fill="none" fill-rule="evenodd"/><path d="M0 0 190.201 313.714" stroke="#878181" stroke-width="13.75" stroke-linecap="round" stroke-miterlimit="8" fill="none" fill-rule="evenodd" transform="matrix(1 0 0 -1 2211 1299.71)"/><path d="M2211 1299 2401.2 1376.86" stroke="#878181" stroke-width="13.75" stroke-linecap="round" stroke-miterlimit="8" fill="none" fill-rule="evenodd"/><path d="M0 0 190.201 570.381" stroke="#878181" stroke-width="13.75" stroke-linecap="round" stroke-miterlimit="8" fill="none" fill-rule="evenodd" transform="matrix(1 0 0 -1 2211 1556.38)"/><path d="M0 0 190.2 178.81" stroke="#878181" stroke-width="13.75" stroke-linecap="round" stroke-miterlimit="8" fill="none" fill-rule="evenodd" transform="matrix(1 0 0 -1 2211 1555.81)"/></g></svg>